<svg xmlns="http://www.w3.org/2000/svg" viewBox="0 0 512 512">
  <path fill="#fff" d="M501.551 387.058c0 28.498-23.312 51.808-51.809 51.808H62.258c-28.496 0-51.809-23.311-51.809-51.808V124.942c0-28.497 23.313-51.808 51.809-51.808h387.484c28.497 0 51.809 23.311 51.809 51.808v262.116z"/>
  <path fill="#d50707" d="M62.258 438.867h10.885v-276.32l182.716 147.187 182.716-147.187v276.319h11.166c26.683 0 48.816-20.435 51.528-46.43V124.942c0-28.498-23.313-51.808-51.809-51.808L255.859 229.627 62.258 73.133c-28.496 0-51.809 23.311-51.809 51.808v262.117c0 28.498 23.313 51.809 51.809 51.809z"/>
  <path d="M449.742 62.684H62.258C27.929 62.684 0 90.614 0 124.942v262.117c0 34.329 27.929 62.257 62.258 62.257h387.484c34.33 0 62.258-27.928 62.258-62.257V124.942c0-34.328-27.928-62.258-62.258-62.258zm-29.83 20.898L255.859 216.19 91.806 83.582h328.106zm8.214 344.836H83.592V184.382l165.712 133.49c3.826 3.082 9.284 3.082 13.11 0l165.711-133.49v244.036zm62.976-41.36c0 22.806-18.554 41.359-41.36 41.359h-.717v-265.87c0-4.023-2.309-7.688-5.939-9.425-3.632-1.738-7.934-1.235-11.065 1.288L255.859 296.318 79.698 154.41c-3.134-2.523-7.438-3.026-11.065-1.288-3.63 1.737-5.939 5.402-5.939 9.425v265.87h-.436c-22.805.001-41.359-18.553-41.359-41.358V124.942c0-21.626 16.688-39.418 37.861-41.2l190.532 154.012c1.915 1.549 4.242 2.323 6.568 2.323 2.327 0 4.653-.774 6.568-2.323L452.983 83.721c21.295 1.66 38.119 19.507 38.119 41.22v262.117z"/>
  <path d="M398.522 263.111c2.309 0 4.634-.762 6.568-2.328l3.635-2.942c4.485-3.631 5.177-10.21 1.546-14.695-3.63-4.486-10.211-5.178-14.695-1.547l-3.636 2.942c-4.485 3.631-5.177 10.211-1.546 14.696 2.065 2.55 5.083 3.874 8.128 3.874zM297.54 344.054c2.309 0 4.634-.762 6.568-2.327l74.708-59.674c4.485-3.631 5.177-10.21 1.546-14.695-3.63-4.486-10.211-5.179-14.695-1.549l-74.708 59.674c-4.485 3.631-5.177 10.21-1.546 14.695 2.063 2.551 5.082 3.876 8.127 3.876z"/>
</svg>
